<?xml version="1.0" encoding="utf-8"?>
<!-- Generator: Adobe Illustrator 22.0.1, SVG Export Plug-In . SVG Version: 6.00 Build 0)  -->
<svg version="1.1" id="Layer_1" xmlns="http://www.w3.org/2000/svg" xmlns:xlink="http://www.w3.org/1999/xlink" x="0px" y="0px"
	 viewBox="0 0 281 280" style="enable-background:new 0 0 281 280;" xml:space="preserve">
<style type="text/css">
	.st0{fill:#999999;}
	.st1{fill:#999999;stroke:#000000;stroke-width:0.25;stroke-linecap:round;stroke-miterlimit:10;}
</style>
<path class="st0" d="M142,0C64.7,0,2,62.7,2,140s62.7,140,140,140s140-62.7,140-140S219.3,0,142,0z M142,253.8
	c-62.7,0-113.8-51-113.8-113.8c0-62.7,51-113.8,113.8-113.8s113.8,51,113.8,113.8C255.7,202.7,204.7,253.8,142,253.8z"/>
<g>
	<polygon class="st0" points="96.8,176.8 57.1,137.1 96.8,98.2 109.3,110.7 83.6,137.1 109.3,163.6 	"/>
	<polygon class="st1" points="187.9,176.8 174.7,163.6 201.1,137.1 174.7,110.7 187.9,98.2 226.8,137.1 	"/>
	<polygon class="st0" points="135,183.4 116.6,183.4 149,90.8 167.3,90.8 	"/>
</g>
</svg>
